<svg xmlns="http://www.w3.org/2000/svg" width="40" height="40" viewBox="0 0 40 40" fill="none">
    <g clip-path="url(#clip0_2480_24416)">
        <path
            d="M38.6295 18.6307C39.9972 17.263 39.9972 15.0614 39.9972 10.6582V9.34003C39.9972 4.93687 39.9972 2.73529 38.6295 1.36756C37.2618 -0.00292969 35.0602 -0.00292969 30.657 -0.00292969H29.3388C24.9357 -0.00292969 22.7341 -0.00292969 21.3664 1.36756C20.6371 2.09408 20.2986 3.06277 20.139 4.46903H19.8555C19.6959 3.06277 19.3574 2.09408 18.6309 1.36756C17.2659 -0.000177647 15.0616 -0.00017771 10.6584 -0.00017771H9.34021C4.93705 -0.00017771 2.73547 -0.000177647 1.36773 1.37031C0 2.73529 0 4.93962 0 9.34279V10.661C0 15.0641 0 17.2657 1.36773 18.6335C2.17131 19.437 3.26385 19.7673 4.91503 19.9049V20.1003C3.26385 20.2379 2.17131 20.5681 1.36773 21.3689C0 22.7367 0 24.9382 0 29.3414V30.6596C0 35.0655 0 37.2644 1.36773 38.6321C2.73822 40.0026 4.93705 40.0026 9.34296 40.0026H10.6612C15.0643 40.0026 17.2659 40.0026 18.6336 38.6321C19.3602 37.9056 19.6987 36.9369 19.8583 35.5306H20.1417C20.3013 36.9369 20.6398 37.9056 21.3691 38.6321C22.7368 40.0026 24.9384 40.0026 29.3416 40.0026H30.6598C35.063 40.0026 37.2645 40.0026 38.6323 38.6321C40 37.2644 40 35.0655 40 30.6596V29.3414C40 24.9382 40 22.7367 38.6323 21.3689C37.8314 20.5681 36.7361 20.2379 35.085 20.1003V19.9049C36.7361 19.7673 37.8314 19.437 38.6323 18.6335L38.6295 18.6307Z"
            fill="#FF662B" />
        <path
            d="M13.6108 30.6816L7.1739 23.0229C7.08859 22.9211 6.96475 22.8633 6.83266 22.8633H4.18801C3.94033 22.8633 3.74219 23.0642 3.74219 23.3091V35.8086C3.74219 36.0563 3.94308 36.2544 4.18801 36.2544H6.67304C6.92072 36.2544 7.11886 36.0535 7.11886 35.8086V28.4636L7.24821 28.4168L13.7016 36.0948C13.7869 36.1966 13.9107 36.2544 14.0428 36.2544H16.6875C16.9352 36.2544 17.1333 36.0535 17.1333 35.8086V23.3091C17.1333 23.0614 16.9324 22.8633 16.6875 22.8633H14.1832C13.9355 22.8633 13.7374 23.0642 13.7374 23.3091V30.6349L13.608 30.6816H13.6108Z"
            fill="white" />
        <path
            d="M3.74609 4.19094V16.6904C3.74609 16.9381 3.94699 17.1362 4.19191 17.1362H14.1678C15.808 17.1362 17.1372 15.807 17.1372 14.1669V6.7145C17.1372 5.07432 15.808 3.74512 14.1678 3.74512H4.19191C3.94424 3.74512 3.74609 3.94601 3.74609 4.19094ZM13.312 13.7596H7.12277V7.12455H13.312C13.5596 7.12455 13.7578 7.32544 13.7578 7.57037V13.3137C13.7578 13.5614 13.5569 13.7596 13.312 13.7596Z"
            fill="white" />
        <path
            d="M32.875 23.312V32.4321C32.875 32.6798 32.6741 32.8779 32.4292 32.8779H26.6858C26.4381 32.8779 26.24 32.677 26.24 32.4321V23.312C26.24 23.0644 26.0391 22.8662 25.7941 22.8662H23.3091C23.0614 22.8662 22.8633 23.0671 22.8633 23.312V33.288C22.8633 34.9281 24.1952 36.2573 25.8327 36.2573H33.2878C34.9252 36.2573 36.2572 34.9281 36.2572 33.288V23.312C36.2572 23.0644 36.0563 22.8662 35.8113 22.8662H33.3263C33.0786 22.8662 32.8805 23.0671 32.8805 23.312H32.875Z"
            fill="white" />
        <path
            d="M36.2196 6.68427V4.19924C36.2196 3.95156 36.0187 3.75342 35.7738 3.75342H23.3404C23.0927 3.75342 22.8945 3.95431 22.8945 4.19924V16.6822C22.8945 16.9299 23.0954 17.128 23.3404 17.128H35.7738C36.0215 17.128 36.2196 16.9271 36.2196 16.6822V14.1972C36.2196 13.9495 36.0187 13.7514 35.7738 13.7514H26.274V12.1304H33.985C34.2327 12.1304 34.4308 11.9295 34.4308 11.6846V9.19958C34.4308 8.9519 34.2299 8.75376 33.985 8.75376H26.274V7.13285H35.7738C36.0215 7.13285 36.2196 6.93195 36.2196 6.68703V6.68427Z"
            fill="white" />
    </g>
    <defs>
        <clipPath id="clip0_2480_24416">
            <rect width="39.9972" height="40" fill="white" />
        </clipPath>
    </defs>
</svg>